<svg width="64" height="40" viewBox="0 0 64 40" fill="none" xmlns="http://www.w3.org/2000/svg">
<rect width="64" height="40" rx="20" fill="white"/>
<path d="M33.9993 26C34.2645 26 34.5189 25.8946 34.7064 25.7071C34.8939 25.5196 34.9993 25.2652 34.9993 25V23C34.9993 22.7348 34.8939 22.4804 34.7064 22.2929C34.5189 22.1054 34.2645 22 33.9993 22C33.7341 22 33.4797 22.1054 33.2922 22.2929C33.1047 22.4804 32.9993 22.7348 32.9993 23V25C32.9993 25.2652 33.1047 25.5196 33.2922 25.7071C33.4797 25.8946 33.7341 26 33.9993 26ZM29.9993 26C30.2645 26 30.5189 25.8946 30.7064 25.7071C30.8939 25.5196 30.9993 25.2652 30.9993 25V23C30.9993 22.7348 30.8939 22.4804 30.7064 22.2929C30.5189 22.1054 30.2645 22 29.9993 22C29.7341 22 29.4797 22.1054 29.2922 22.2929C29.1047 22.4804 28.9993 22.7348 28.9993 23V25C28.9993 25.2652 29.1047 25.5196 29.2922 25.7071C29.4797 25.8946 29.7341 26 29.9993 26ZM38.9993 14H37.6193L35.8893 10.55C35.8364 10.423 35.758 10.3084 35.6588 10.2131C35.5596 10.1179 35.4418 10.0441 35.3128 9.99644C35.1839 9.94876 35.0464 9.9282 34.9091 9.93604C34.7718 9.94388 34.6376 9.97996 34.5149 10.042C34.3922 10.1041 34.2836 10.1907 34.1959 10.2967C34.1082 10.4026 34.0433 10.5255 34.0052 10.6576C33.9672 10.7897 33.9568 10.9283 33.9747 11.0646C33.9926 11.201 34.0384 11.3322 34.1093 11.45L35.3793 14H28.6193L29.8893 11.45C29.9864 11.2169 29.9917 10.9557 29.9041 10.7189C29.8166 10.482 29.6427 10.2871 29.4174 10.1732C29.192 10.0592 28.9319 10.0348 28.6893 10.1047C28.4467 10.1746 28.2395 10.3336 28.1093 10.55L26.3793 14H24.9993C24.2925 14.0107 23.6122 14.2707 23.0784 14.7341C22.5445 15.1975 22.1915 15.8345 22.0815 16.5328C21.9715 17.2311 22.1116 17.9458 22.4771 18.5508C22.8426 19.1559 23.41 19.6125 24.0793 19.84L24.8193 27.3C24.8939 28.0426 25.2426 28.7307 25.7974 29.2299C26.3521 29.7292 27.073 30.0037 27.8193 30H36.1993C36.9456 30.0037 37.6665 29.7292 38.2212 29.2299C38.776 28.7307 39.1247 28.0426 39.1993 27.3L39.9393 19.84C40.61 19.6118 41.1784 19.1536 41.5436 18.5465C41.9089 17.9394 42.0475 17.2226 41.9349 16.5231C41.8223 15.8237 41.4658 15.1866 40.9285 14.7248C40.3912 14.263 39.7078 14.0062 38.9993 14ZM37.1893 27.1C37.1644 27.3475 37.0482 27.5769 36.8633 27.7433C36.6784 27.9097 36.4381 28.0012 36.1893 28H27.8093C27.5605 28.0012 27.3202 27.9097 27.1353 27.7433C26.9504 27.5769 26.8342 27.3475 26.8093 27.1L26.0993 20H37.8993L37.1893 27.1ZM38.9993 18H24.9993C24.7341 18 24.4797 17.8946 24.2922 17.7071C24.1047 17.5196 23.9993 17.2652 23.9993 17C23.9993 16.7348 24.1047 16.4804 24.2922 16.2929C24.4797 16.1054 24.7341 16 24.9993 16H38.9993C39.2645 16 39.5189 16.1054 39.7064 16.2929C39.8939 16.4804 39.9993 16.7348 39.9993 17C39.9993 17.2652 39.8939 17.5196 39.7064 17.7071C39.5189 17.8946 39.2645 18 38.9993 18Z" fill="#3861FB"/>
</svg>
