<svg width="40" height="40" viewBox="0 0 40 40" fill="none" xmlns="http://www.w3.org/2000/svg">
<rect width="40" height="40" rx="20" fill="#3861FB"/>
<g filter="url(#filter0_d_196_4127)">
<path d="M29.7094 28.29L25.9994 24.61C27.4395 22.8144 28.1369 20.5353 27.9482 18.2413C27.7595 15.9473 26.6991 13.8128 24.9849 12.2766C23.2708 10.7405 21.0332 9.91951 18.7323 9.98247C16.4315 10.0454 14.2421 10.9876 12.6146 12.6151C10.987 14.2427 10.0448 16.432 9.98189 18.7329C9.91893 21.0338 10.7399 23.2714 12.2761 24.9855C13.8122 26.6997 15.9467 27.7601 18.2407 27.9488C20.5347 28.1375 22.8138 27.4401 24.6094 26L28.2894 29.68C28.3824 29.7737 28.493 29.8481 28.6148 29.8989C28.7367 29.9497 28.8674 29.9758 28.9994 29.9758C29.1314 29.9758 29.2621 29.9497 29.384 29.8989C29.5059 29.8481 29.6165 29.7737 29.7094 29.68C29.8897 29.4935 29.9904 29.2443 29.9904 28.985C29.9904 28.7257 29.8897 28.4765 29.7094 28.29V28.29ZM18.9994 26C17.6149 26 16.2616 25.5895 15.1104 24.8203C13.9593 24.0511 13.0621 22.9579 12.5323 21.6788C12.0024 20.3997 11.8638 18.9922 12.1339 17.6344C12.404 16.2765 13.0707 15.0292 14.0497 14.0503C15.0286 13.0713 16.2759 12.4046 17.6338 12.1345C18.9917 11.8644 20.3991 12.003 21.6782 12.5328C22.9573 13.0627 24.0505 13.9599 24.8197 15.111C25.5889 16.2622 25.9994 17.6155 25.9994 19C25.9994 20.8565 25.2619 22.637 23.9492 23.9498C22.6364 25.2625 20.8559 26 18.9994 26V26Z" fill="white"/>
</g>
<defs>
<filter id="filter0_d_196_4127" x="4" y="8" width="32" height="32" filterUnits="userSpaceOnUse" color-interpolation-filters="sRGB">
<feFlood flood-opacity="0" result="BackgroundImageFix"/>
<feColorMatrix in="SourceAlpha" type="matrix" values="0 0 0 0 0 0 0 0 0 0 0 0 0 0 0 0 0 0 127 0" result="hardAlpha"/>
<feOffset dy="4"/>
<feGaussianBlur stdDeviation="2"/>
<feComposite in2="hardAlpha" operator="out"/>
<feColorMatrix type="matrix" values="0 0 0 0 0 0 0 0 0 0 0 0 0 0 0 0 0 0 0.25 0"/>
<feBlend mode="normal" in2="BackgroundImageFix" result="effect1_dropShadow_196_4127"/>
<feBlend mode="normal" in="SourceGraphic" in2="effect1_dropShadow_196_4127" result="shape"/>
</filter>
</defs>
</svg>
